<?xml version="1.0" encoding="utf-8"?>
<!-- Svg Vector Icons : http://www.onlinewebfonts.com/icon -->
<!DOCTYPE svg PUBLIC "-//W3C//DTD SVG 1.1//EN" "http://www.w3.org/Graphics/SVG/1.1/DTD/svg11.dtd">
<svg version="1.1" xmlns="http://www.w3.org/2000/svg" xmlns:xlink="http://www.w3.org/1999/xlink" x="0px" y="0px" viewBox="0 0 256 256" enable-background="new 0 0 256 256" xml:space="preserve">
<metadata> Svg Vector Icons : http://www.onlinewebfonts.com/icon </metadata>
<g><g><g><path fill="#000000" d="M115.8,10.6c-22.1,2.3-45.2,11.9-62.3,25.9c-4.8,4-14,13.2-17.7,17.9c-4.7,5.8-9.9,14.1-13.6,21.7C-6.6,134.4,17.5,205,76.1,233.9c39.7,19.6,87.3,15.2,122.8-11.5c5.4-4,15.5-13.8,20.3-19.5c11.2-13.4,20.2-31.8,24.1-49.2c11.8-53.1-14.4-107.4-63.3-131.5C160.3,12.5,137.4,8.3,115.8,10.6z M138.5,28.7c16,1.9,30.6,7.1,44,15.7c31.1,20.2,48.7,56.9,44.8,93.7c-1.8,17-8.2,33.8-18,47.8c-4.9,6.9-16.5,18.5-23.4,23.4c-6.4,4.5-19.2,11.1-26.5,13.5c-43,14.2-90.4-2.5-115-40.3c-28.1-43.4-18.9-100,21.5-132.6C85.5,34,113.4,25.9,138.5,28.7z"/><path fill="#000000" d="M69.8,65.3c-2.3,1-4.7,3.9-5.2,6.3c-0.9,5.1-1.6,4.3,25.5,31.3l25.1,25.1l-25.1,25.1c-27.1,27.2-26.4,26.3-25.4,31.5c0.5,2.8,3.9,6.2,6.7,6.7c5.2,1,4.3,1.7,31.5-25.4l25.1-25.1l25.1,25.1c27.2,27.1,26.3,26.4,31.4,25.4c2.8-0.5,6.2-3.9,6.7-6.7c1-5.2,1.7-4.3-25.4-31.5L140.8,128l25.1-25.1c27.1-27.2,26.4-26.3,25.4-31.4c-0.5-2.8-3.9-6.2-6.7-6.7c-5.2-1-4.3-1.7-31.5,25.4L128,115.3l-24.9-24.8C89.5,76.9,77.6,65.4,76.7,65C74.6,64.2,71.9,64.4,69.8,65.3z"/></g></g></g>
</svg>